<svg id="Layer_9" data-name="Layer 9" xmlns="http://www.w3.org/2000/svg" xmlns:xlink="http://www.w3.org/1999/xlink" viewBox="0 0 470.32 393.13"><defs><style>.cls-1{fill:#f7e9d1;}.cls-2{fill:url(#linear-gradient);}.cls-3{fill:url(#linear-gradient-2);}.cls-4{fill:url(#linear-gradient-3);}.cls-5{fill:#070808;}</style><linearGradient id="linear-gradient" x1="194.32" y1="402.88" x2="36.67" y2="245.23" gradientTransform="matrix(1, 0, 0, -1, -29.76, 452.19)" gradientUnits="userSpaceOnUse"><stop offset="0" stop-color="#694228"/><stop offset="1" stop-color="#5c3920"/></linearGradient><linearGradient id="linear-gradient-2" x1="466.19" y1="378.31" x2="355.95" y2="268.07" xlink:href="#linear-gradient"/><linearGradient id="linear-gradient-3" x1="380.71" y1="303.3" x2="144.29" y2="66.87" xlink:href="#linear-gradient"/></defs><title>favicon</title><g id="skin"><ellipse id="_Path_" data-name=" Path " class="cls-1" cx="237.09" cy="231.69" rx="152.54" ry="155.18"/><ellipse id="_Path_2" data-name=" Path 2" class="cls-1" cx="358.95" cy="108.57" rx="78.73" ry="81.77"/><ellipse id="_Path_3" data-name=" Path 3" class="cls-1" cx="110.53" cy="110.44" rx="78.73" ry="81.77"/></g><g id="_Group_" data-name=" Group "><path id="_Path_4" data-name=" Path 4" class="cls-2" d="M39.94,152.67A70.25,70.25,0,0,1,168.86,114a166,166,0,0,1,41-11.36A111.46,111.46,0,1,0,67.08,255.42a166.38,166.38,0,0,1,8.55-41.61A70.22,70.22,0,0,1,39.94,152.67Z" transform="translate(1.24 -41.18)"/><path id="_Path_5" data-name=" Path 5" class="cls-3" d="M469.08,152.67A111.46,111.46,0,0,0,257.85,103a165.93,165.93,0,0,1,40.54,11.8,70.25,70.25,0,1,1,91.84,100.08,166.46,166.46,0,0,1,8.25,41.53A111.49,111.49,0,0,0,469.08,152.67Z" transform="translate(1.24 -41.18)"/><path id="_Compound_Path_" data-name=" Compound Path " class="cls-4" d="M399.48,255.39a167.14,167.14,0,0,0-333.4-1q-0.47,6.29-.48,12.69a167.16,167.16,0,0,0,334.32.07v-0.07Q399.89,261.2,399.48,255.39ZM333.32,254a111.45,111.45,0,1,1-196.4,1.5,55.72,55.72,0,1,1,82.85-58.36,111.84,111.84,0,0,1,28.44-.39A55.72,55.72,0,1,1,333.33,254h0Z" transform="translate(1.24 -41.18)"/></g><g id="Face"><ellipse id="_Path_6" data-name=" Path 6" class="cls-5" cx="221.42" cy="221.94" rx="14.62" ry="14.74"/><ellipse id="_Path_7" data-name=" Path 7" class="cls-5" cx="258.44" cy="221.94" rx="14.62" ry="14.74"/><ellipse id="_Path_8" data-name=" Path 8" class="cls-5" cx="304.15" cy="166.22" rx="23.94" ry="24.12"/><ellipse id="_Path_9" data-name=" Path 9" class="cls-5" cx="166.25" cy="166.16" rx="23.94" ry="24.12"/></g></svg>